<?xml version="1.0" encoding="UTF-8"?>
<svg id="Layer_1" xmlns="http://www.w3.org/2000/svg" version="1.1" viewBox="0 0 4000 2200">
  <!-- Generator: Adobe Illustrator 29.0.1, SVG Export Plug-In . SVG Version: 2.1.0 Build 192)  -->
  <defs>
    <style>
      .st0 {
        fill: #470f72;
      }

      .st1 {
        stroke: #000;
        stroke-miterlimit: 10;
        stroke-width: 18px;
      }
    </style>
  </defs>
  <g>
    <path d="M2155.17,329.58c-78.51,83.18-459.67,464.34-533.59,538.26-74,73.92-121.59,113.18-185.57,30V349.78c0-157.48,127.64-285.12,285.12-285.12h446.97c26.78,19.28,55.56,47.6,65.66,84.71,20.74,76.22,0,97.03-78.59,180.21Z"/>
    <path class="st0" d="M2718.15,349.78v92.59c-17.22,29.77-44.46,64.59-85.93,104.91-185.41,180.21-684.34,684.42-727.66,722.53-26.78,23.57-43.01,55.79-107.36,76.91h-76.06c-157.48,0-285.12-127.64-285.12-285.12v-6.35c10.64-8.34,24.95-15.76,44-21.12,98.79-27.7,83.18,1.76,211.43-126.42,128.18-128.25,481.63-481.71,535.35-537.11,53.72-55.48,97.03-90.14,95.27-190.62-1.53-93.51-43.62-77.44-8.95-115.32h119.83c157.48,0,285.2,127.64,285.2,285.12Z"/>
    <path d="M2718.15,707.83v353.77c0,157.48-127.72,285.12-285.2,285.12h-339.91c-32.22-12.7-55.4-32.91-49.89-64.82,12.09-53.72-1.76-34.66,84.86-121.29,86.62-86.62,415.83-414.37,455.69-454.93,34.51-35.12,104.07-95.65,134.45,2.14Z"/>
  </g>
  <g>
    <path class="st1" d="M162.29,1942.2c28.96,15.36,71.29,28.17,115.84,28.17,66.09,0,104.7-30.09,104.7-73.62,0-40.33-26.73-63.38-95.05-85.78-80.94-24.33-131.44-62.1-131.44-122.27,0-66.58,64.6-116.51,161.88-116.51,50.5,0,88.37,10.24,110.64,20.49l-17.82,45.45c-16.34-7.68-49.75-20.48-95.05-20.48-68.32,0-94.31,35.21-94.31,64.66,0,40.33,30.44,60.18,99.5,83.22,84.65,28.81,127.72,63.38,127.72,126.75,0,66.58-57.18,124.83-175.25,124.83-49.01,0-101.73-12.8-128.47-28.17l17.08-46.74Z"/>
    <path class="st1" d="M535.05,1784.08c0-32.01-1.49-58.26-2.97-83.22h57.92l2.97,50.57h2.23c17.82-28.81,59.4-57.62,118.81-57.62,49.01,0,126.24,25.6,126.24,131.24v185.01h-64.6v-177.97c0-50.57-21.53-92.19-83.17-92.19-43.07,0-75.74,26.25-87.62,57.62-2.97,7.04-5.2,16.64-5.2,26.25v186.29h-64.6v-225.98Z"/>
    <path class="st1" d="M1020.67,1613.15c0,19.21-16.34,34.57-41.58,34.57-23.76,0-40.1-15.36-39.36-34.57-.74-19.2,16.34-35.21,40.1-35.21s40.1,15.36,40.84,35.21ZM947.15,2010.06v-309.2h64.6v309.2h-64.6Z"/>
    <path class="st1" d="M1120.91,1801.36c0-39.69-1.49-71.7-2.97-100.5h58.66l2.97,52.49h1.49c25.99-37.77,69.06-59.53,127.72-59.53,86.88,0,152.23,62.74,152.23,156.84,0,111.39-78.71,166.45-162.62,166.45-49.01,0-89.85-17.93-111.38-48.65h-1.49v168.37h-64.6v-335.45ZM1185.51,1883.95c0,8.32.74,16,2.97,23.05,11.88,39.69,51.24,65.94,98.02,65.94,69.06,0,109.16-48.66,109.16-119.71,0-62.1-37.87-114.59-106.93-114.59-44.55,0-86.14,26.89-98.76,69.14-2.23,7.04-4.46,15.36-4.46,23.05v53.13Z"/>
    <path class="st1" d="M1544.15,1801.36c0-39.69-1.49-71.7-2.97-100.5h58.66l2.97,52.49h1.49c25.99-37.77,69.06-59.53,127.72-59.53,86.88,0,152.23,62.74,152.23,156.84,0,111.39-78.71,166.45-162.62,166.45-49.01,0-89.85-17.93-111.38-48.65h-1.49v168.37h-64.6v-335.45ZM1608.76,1883.95c0,8.32.74,16,2.97,23.05,11.88,39.69,51.24,65.94,98.02,65.94,69.06,0,109.16-48.66,109.16-119.71,0-62.1-37.87-114.59-106.93-114.59-44.55,0-86.14,26.89-98.76,69.14-2.23,7.04-4.46,15.36-4.46,23.05v53.13Z"/>
    <path class="st1" d="M2003.79,1865.38c1.49,76.18,57.18,107.55,123.27,107.55,46.78,0,75.74-7.05,99.5-16.01l11.14,40.33c-22.28,8.96-62.38,19.84-119.55,19.84-110.64,0-176.73-63.38-176.73-156.2s63.86-167.08,169.31-167.08c116.58,0,147.77,88.34,147.77,145.32,0,11.52-1.49,20.48-2.97,26.25h-251.73ZM2195.37,1825.05c.74-35.21-17.08-90.9-90.59-90.9-66.09,0-95.05,51.85-100.25,90.9h190.84Z"/>
    <path class="st1" d="M2418.12,1611.23v89.62h93.57v42.25h-93.57v167.08c0,38.41,12.62,60.18,49.01,60.18,17.08,0,28.96-1.92,37.87-3.84l2.97,42.25c-12.62,5.12-32.67,8.32-58.66,8.32-29.7,0-54.95-8.96-70.54-23.69-17.08-17.93-24.51-44.81-24.51-81.3v-169h-55.69v-42.25h55.69v-74.9l63.86-14.72Z"/>
    <path class="st1" d="M2652.02,1578.59v181.17h242.08v-181.17h64.6v431.48h-64.6v-202.29h-242.08v202.29h-65.35v-431.48h65.35Z"/>
    <path class="st1" d="M3315.12,2010.06l-3.71-50.57h-1.49c-16.34,23.69-52.72,57.62-119.55,57.62s-123.27-36.49-123.27-135.72v-180.53h65.35v170.93c0,60.18,22.27,99.23,78.71,99.23,47.52,0,77.97-28.17,87.62-51.21,3.71-8.96,5.94-19.85,5.94-29.45v-189.49h64.6v224.7c0,32.65,1.49,59.54,2.97,84.5h-57.18Z"/>
    <path class="st1" d="M3477.73,1555.54h64.6v194.62h1.48c23.02-34.57,64.6-56.33,122.53-56.33,89.11,0,152.23,64.02,152.23,157.48,0,110.75-82.42,165.81-161.88,165.81-51.98,0-93.56-17.29-121.04-57.62h-1.49l-2.97,50.57h-56.44c1.49-21.12,2.97-52.5,2.97-79.38v-375.14ZM3542.33,1885.87c0,7.04.74,14.08,2.97,20.49,12.62,39.69,51.24,65.94,98.02,65.94,69.06,0,109.16-48.02,109.16-119.07,0-62.1-37.13-115.23-107.67-115.23-43.81,0-85.4,26.25-98.76,69.14-1.49,7.04-3.71,14.08-3.71,23.05v55.69Z"/>
  </g>
</svg>